{
    "accessors": {
        "accessor_120": {
            "bufferView": "bufferView_131",
            "byteOffset": 1440,
            "byteStride": 0,
            "componentType": 5123,
            "count": 72,
            "type": "SCALAR"
        },
        "accessor_123": {
            "bufferView": "bufferView_131",
            "byteOffset": 1584,
            "byteStride": 0,
            "componentType": 5123,
            "count": 72,
            "type": "SCALAR"
        },
        "accessor_125": {
            "bufferView": "bufferView_132",
            "byteOffset": 1560,
            "byteStride": 12,
            "componentType": 5126,
            "count": 25,
            "max": [
                0.08199869841337204,
                1.5962599515914917,
                1.5962499380111694
            ],
            "min": [
                0.08199869841337204,
                -1.596229910850525,
                -1.5962499380111694
            ],
            "type": "VEC3"
        },
        "accessor_127": {
            "bufferView": "bufferView_132",
            "byteOffset": 1860,
            "byteStride": 2,
            "componentType": 5120,
            "count": 25,
            "max": [
                127,
                0
            ],
            "min": [
                127,
                0
            ],
            "type": "VEC2"
        },
        "accessor_129": {
            "bufferView": "bufferView_132",
            "byteOffset": 1912,
            "byteStride": 6,
            "componentType": 5122,
            "count": 25,
            "max": [
                32727,
                32726,
                -32766
            ],
            "min": [
                0,
                0,
                -32766
            ],
            "type": "VEC3"
        },
        "accessor_29": {
            "bufferView": "bufferView_131",
            "byteOffset": 1728,
            "byteStride": 0,
            "componentType": 5123,
            "count": 17088,
            "type": "SCALAR"
        },
        "accessor_31": {
            "bufferView": "bufferView_132",
            "byteOffset": 2064,
            "byteStride": 12,
            "componentType": 5126,
            "count": 4180,
            "max": [
                8.00469970703125,
                5.464059829711914,
                12.86829948425293
            ],
            "min": [
                -13.396899223327637,
                -2.2960000038146973,
                -12.86829948425293
            ],
            "type": "VEC3"
        },
        "accessor_33": {
            "bufferView": "bufferView_132",
            "byteOffset": 52224,
            "byteStride": 2,
            "componentType": 5120,
            "count": 4180,
            "max": [
                127,
                127
            ],
            "min": [
                -127,
                -127
            ],
            "type": "VEC2"
        },
        "accessor_35": {
            "bufferView": "bufferView_132",
            "byteOffset": 60584,
            "byteStride": 6,
            "componentType": 5122,
            "count": 4180,
            "max": [
                32733,
                32733,
                -32766
            ],
            "min": [
                0,
                0,
                -32766
            ],
            "type": "VEC3"
        },
        "accessor_73": {
            "bufferView": "bufferView_131",
            "byteOffset": 0,
            "byteStride": 0,
            "componentType": 5123,
            "count": 360,
            "type": "SCALAR"
        },
        "accessor_76": {
            "bufferView": "bufferView_131",
            "byteOffset": 720,
            "byteStride": 0,
            "componentType": 5123,
            "count": 360,
            "type": "SCALAR"
        },
        "accessor_78": {
            "bufferView": "bufferView_132",
            "byteOffset": 0,
            "byteStride": 12,
            "componentType": 5126,
            "count": 78,
            "max": [
                0.5895140171051025,
                0.25182101130485535,
                0.25182101130485535
            ],
            "min": [
                -0.000022888199964654632,
                -0.25182101130485535,
                -0.25182101130485535
            ],
            "type": "VEC3"
        },
        "accessor_80": {
            "bufferView": "bufferView_132",
            "byteOffset": 936,
            "byteStride": 2,
            "componentType": 5120,
            "count": 78,
            "max": [
                126,
                116
            ],
            "min": [
                11,
                -116
            ],
            "type": "VEC2"
        },
        "accessor_82": {
            "bufferView": "bufferView_132",
            "byteOffset": 1092,
            "byteStride": 6,
            "componentType": 5122,
            "count": 78,
            "max": [
                19094,
                19296,
                -32766
            ],
            "min": [
                17200,
                18374,
                -32766
            ],
            "type": "VEC3"
        },
        "animAccessor_0": {
            "bufferView": "bufferView_130",
            "byteOffset": 0,
            "componentType": 5126,
            "count": 8,
            "type": "SCALAR"
        },
        "animAccessor_1": {
            "bufferView": "bufferView_130",
            "byteOffset": 32,
            "componentType": 5126,
            "count": 8,
            "type": "VEC4"
        }
    },
    "animations": {
        "animation_0": {
            "channels": [
                {
                    "sampler": "animation_0_rotation_sampler",
                    "target": {
                        "id": "Geometry-mesh005Node",
                        "path": "rotation"
                    }
                }
            ],
            "parameters": {
                "TIME": "animAccessor_0",
                "rotation": "animAccessor_1"
            },
            "samplers": {
                "animation_0_rotation_sampler": {
                    "input": "TIME",
                    "interpolation": "LINEAR",
                    "output": "rotation"
                }
            }
        },
        "animation_1": {
            "channels": [
                {
                    "sampler": "animation_1_rotation_sampler",
                    "target": {
                        "id": "meshInst741Node",
                        "path": "rotation"
                    }
                }
            ],
            "parameters": {
                "TIME": "animAccessor_0",
                "rotation": "animAccessor_1"
            },
            "samplers": {
                "animation_1_rotation_sampler": {
                    "input": "TIME",
                    "interpolation": "LINEAR",
                    "output": "rotation"
                }
            }
        }
    },
    "asset": {
        "generator": "collada2gltf@",
        "premultipliedAlpha": true,
        "profile": {
            "api": "WebGL",
            "version": "1.0.2"
        },
        "version": "1.0"
    },
    "bufferViews": {
        "bufferView_130": {
            "buffer": "Cesium_Air",
            "byteLength": 160,
            "byteOffset": 0
        },
        "bufferView_131": {
            "buffer": "Cesium_Air",
            "byteLength": 35904,
            "byteOffset": 160,
            "target": 34963
        },
        "bufferView_132": {
            "buffer": "Cesium_Air",
            "byteLength": 85664,
            "byteOffset": 36064,
            "target": 34962
        }
    },
    "buffers": {
        "Cesium_Air": {
            "byteLength": 121728,
            "type": "arraybuffer",
            "uri": "data:application/octet-stream;base64,"
        }
    },
    "images": {
        "TextureAtlas0": {
            "name": "TextureAtlas0",
            "uri": "data:image/png;base64,"
        },
        "TextureAtlas1": {
            "name": "TextureAtlas1",
            "uri": "data:image/png;base64,"
        }
    },
    "materials": {
        "Effect-cesium_air": {
            "name": "cesium_air",
            "technique": "technique0",
            "values": {
                "diffuse": "texture_TextureAtlas0",
                "shininess": 256,
                "specular": [
                    0.20000000298023224,
                    0.20000000298023224,
                    0.20000000298023224,
                    1
                ]
            }
        },
        "Effect-prop": {
            "name": "prop",
            "technique": "technique1",
            "values": {
                "diffuse": "texture_TextureAtlas1",
                "shininess": 256,
                "specular": [
                    0.20000000298023224,
                    0.20000000298023224,
                    0.20000000298023224,
                    1
                ]
            }
        }
    },
    "meshes": {
        "Geometry-mesh005": {
            "name": "Prop",
            "primitives": [
                {
                    "attributes": {
                        "NORMAL": "accessor_80",
                        "POSITION": "accessor_78",
                        "TEXCOORD_0": "accessor_82"
                    },
                    "indices": "accessor_73",
                    "material": "Effect-cesium_air",
                    "mode": 4
                },
                {
                    "attributes": {
                        "NORMAL": "accessor_80",
                        "POSITION": "accessor_78",
                        "TEXCOORD_0": "accessor_82"
                    },
                    "indices": "accessor_76",
                    "material": "Effect-cesium_air",
                    "mode": 4
                }
            ]
        },
        "Geometry-mesh005-dup-0": {
            "name": "Geometry-mesh005-dup-0",
            "primitives": [
                {
                    "attributes": {
                        "NORMAL": "accessor_127",
                        "POSITION": "accessor_125",
                        "TEXCOORD_0": "accessor_129"
                    },
                    "indices": "accessor_120",
                    "material": "Effect-prop",
                    "mode": 4
                },
                {
                    "attributes": {
                        "NORMAL": "accessor_127",
                        "POSITION": "accessor_125",
                        "TEXCOORD_0": "accessor_129"
                    },
                    "indices": "accessor_123",
                    "material": "Effect-prop",
                    "mode": 4
                }
            ]
        },
        "Geometry-mesh090": {
            "name": "Cesium_Air",
            "primitives": [
                {
                    "attributes": {
                        "NORMAL": "accessor_33",
                        "POSITION": "accessor_31",
                        "TEXCOORD_0": "accessor_35"
                    },
                    "indices": "accessor_29",
                    "material": "Effect-cesium_air",
                    "mode": 4
                }
            ]
        }
    },
    "nodes": {
        "Geometry-mesh005Node": {
            "children": [
                "node_3",
                "node_4"
            ],
            "name": "Prop",
            "rotation": [
                0,
                0,
                0,
                1
            ],
            "scale": [
                1,
                1,
                1
            ],
            "translation": [
                1.9191499948501587,
                0.6840609908103943,
                3.4093198776245117
            ]
        },
        "meshInst741Node": {
            "children": [
                "node_6",
                "node_7"
            ],
            "name": "Prop__2_",
            "rotation": [
                0,
                0,
                0,
                1
            ],
            "scale": [
                1,
                1,
                1
            ],
            "translation": [
                1.9191499948501587,
                0.6840609908103943,
                -3.4093198776245117
            ]
        },
        "node_1": {
            "children": [],
            "matrix": [
                1,
                0,
                0,
                0,
                0,
                1,
                0,
                0,
                0,
                0,
                1,
                0,
                0,
                0,
                0,
                1
            ],
            "meshes": [
                "Geometry-mesh090"
            ],
            "name": ""
        },
        "node_3": {
            "children": [],
            "matrix": [
                1,
                0,
                0,
                0,
                0,
                1,
                0,
                0,
                0,
                0,
                1,
                0,
                0,
                0,
                0,
                1
            ],
            "meshes": [
                "Geometry-mesh005"
            ],
            "name": ""
        },
        "node_4": {
            "children": [],
            "matrix": [
                1,
                0,
                0,
                0,
                0,
                1,
                0,
                0,
                0,
                0,
                1,
                0,
                0,
                0,
                0,
                1
            ],
            "meshes": [
                "Geometry-mesh005-dup-0"
            ],
            "name": ""
        },
        "node_6": {
            "children": [],
            "matrix": [
                1,
                0,
                0,
                0,
                0,
                1,
                0,
                0,
                0,
                0,
                1,
                0,
                0,
                0,
                0,
                1
            ],
            "meshes": [
                "Geometry-mesh005"
            ],
            "name": ""
        },
        "node_7": {
            "children": [],
            "matrix": [
                1,
                0,
                0,
                0,
                0,
                1,
                0,
                0,
                0,
                0,
                1,
                0,
                0,
                0,
                0,
                1
            ],
            "meshes": [
                "Geometry-mesh005-dup-0"
            ],
            "name": ""
        },
        "polyRender085": {
            "children": [],
            "matrix": [
                1,
                0,
                0,
                0,
                0,
                1,
                0,
                0,
                0,
                0,
                1,
                0,
                0,
                0,
                0,
                1
            ],
            "name": "Render"
        }
    },
    "programs": {
        "program_0": {
            "attributes": [
                "a_normal",
                "a_position",
                "a_texcoord0"
            ],
            "fragmentShader": "Cesium_Air0FS",
            "vertexShader": "Cesium_Air0VS"
        },
        "program_1": {
            "attributes": [
                "a_normal",
                "a_position",
                "a_texcoord0"
            ],
            "fragmentShader": "Cesium_Air1FS",
            "vertexShader": "Cesium_Air1VS"
        }
    },
    "samplers": {
        "sampler_0": {
            "magFilter": 9729,
            "minFilter": 9987,
            "wrapS": 10497,
            "wrapT": 10497
        }
    },
    "scene": "defaultScene",
    "scenes": {
        "defaultScene": {
            "nodes": [
                "polyRender085",
                "node_1",
                "Geometry-mesh005Node",
                "meshInst741Node"
            ]
        }
    },
    "shaders": {
        "Cesium_Air0FS": {
            "type": 35632,
            "uri": "data:text/plain;base64,"
        },
        "Cesium_Air0VS": {
            "type": 35633,
            "uri": "data:text/plain;base64,"
        },
        "Cesium_Air1FS": {
            "type": 35632,
            "uri": "data:text/plain;base64,"
        },
        "Cesium_Air1VS": {
            "type": 35633,
            "uri": "data:text/plain;base64,"
        }
    },
    "skins": {},
    "techniques": {
        "technique0": {
            "attributes": {
                "a_normal": "normal",
                "a_position": "position",
                "a_texcoord0": "texcoord0"
            },
            "parameters": {
                "diffuse": {
                    "type": 35678
                },
                "modelViewMatrix": {
                    "semantic": "MODELVIEW",
                    "type": 35676
                },
                "normal": {
                    "semantic": "NORMAL",
                    "type": 35665
                },
                "normalMatrix": {
                    "semantic": "MODELVIEWINVERSETRANSPOSE",
                    "type": 35675
                },
                "position": {
                    "semantic": "POSITION",
                    "type": 35665
                },
                "projectionMatrix": {
                    "semantic": "PROJECTION",
                    "type": 35676
                },
                "shininess": {
                    "type": 5126
                },
                "specular": {
                    "type": 35666
                },
                "texcoord0": {
                    "semantic": "TEXCOORD_0",
                    "type": 35664
                }
            },
            "program": "program_0",
            "states": {
                "enable": [
                    2929,
                    2884
                ]
            },
            "uniforms": {
                "u_diffuse": "diffuse",
                "u_modelViewMatrix": "modelViewMatrix",
                "u_normalMatrix": "normalMatrix",
                "u_projectionMatrix": "projectionMatrix",
                "u_shininess": "shininess",
                "u_specular": "specular"
            }
        },
        "technique1": {
            "attributes": {
                "a_normal": "normal",
                "a_position": "position",
                "a_texcoord0": "texcoord0"
            },
            "parameters": {
                "diffuse": {
                    "type": 35678
                },
                "modelViewMatrix": {
                    "semantic": "MODELVIEW",
                    "type": 35676
                },
                "normal": {
                    "semantic": "NORMAL",
                    "type": 35665
                },
                "normalMatrix": {
                    "semantic": "MODELVIEWINVERSETRANSPOSE",
                    "type": 35675
                },
                "position": {
                    "semantic": "POSITION",
                    "type": 35665
                },
                "projectionMatrix": {
                    "semantic": "PROJECTION",
                    "type": 35676
                },
                "shininess": {
                    "type": 5126
                },
                "specular": {
                    "type": 35666
                },
                "texcoord0": {
                    "semantic": "TEXCOORD_0",
                    "type": 35664
                }
            },
            "program": "program_1",
            "states": {
                "enable": [
                    2929,
                    3042
                ],
                "functions": {
                    "blendEquationSeparate": [
                        32774,
                        32774
                    ],
                    "blendFuncSeparate": [
                        1,
                        771,
                        1,
                        771
                    ],
                    "depthMask": false
                }
            },
            "uniforms": {
                "u_diffuse": "diffuse",
                "u_modelViewMatrix": "modelViewMatrix",
                "u_normalMatrix": "normalMatrix",
                "u_projectionMatrix": "projectionMatrix",
                "u_shininess": "shininess",
                "u_specular": "specular"
            }
        }
    },
    "textures": {
        "texture_TextureAtlas0": {
            "format": 6408,
            "internalFormat": 6408,
            "sampler": "sampler_0",
            "source": "TextureAtlas0",
            "target": 3553,
            "type": 5121
        },
        "texture_TextureAtlas1": {
            "format": 6408,
            "internalFormat": 6408,
            "sampler": "sampler_0",
            "source": "TextureAtlas1",
            "target": 3553,
            "type": 5121
        }
    }
}